<svg xmlns="http://www.w3.org/2000/svg" viewBox="0 0 24 24" fill="none">
  <defs>
    <linearGradient id="toothGradient" x1="0%" y1="0%" x2="100%" y2="100%">
      <stop offset="0%" style="stop-color:#9333ea;stop-opacity:1" />
      <stop offset="100%" style="stop-color:#ec4899;stop-opacity:1" />
    </linearGradient>
  </defs>
  <path d="M12 2C9.8 2 8 3.8 8 6v3c0 1.1-.4 2.2-1.2 3-.8.8-1.3 1.9-1.3 3.1V20c0 1.1.9 2 2 2s2-.9 2-2v-3c0-.6.4-1 1-1h2c.6 0 1 .4 1 1v3c0 1.1.9 2 2 2s2-.9 2-2v-4.9c0-1.2-.5-2.3-1.3-3.1-.8-.8-1.2-1.9-1.2-3V6c0-2.2-1.8-4-4-4z" fill="url(#toothGradient)" stroke="#7c3aed" stroke-width="0.5"/>
</svg>
